<svg width="80" height="80" viewBox="0 0 80 80" fill="none" xmlns="http://www.w3.org/2000/svg">
<rect width="80" height="80" rx="20" fill="white"/>
<path d="M49.9579 45.9531C49.8861 47.7319 50.4888 49.4731 51.6479 50.8357C52.2445 51.3678 52.9432 51.7762 53.7024 52.0366C54.4616 52.2971 55.266 52.4042 56.0679 52.3518C57.3469 52.3874 58.604 52.0182 59.6559 51.2982C60.4979 50.768 61.1451 49.9842 61.5019 49.0625H67.5079C66.842 51.6774 65.2685 53.9784 63.0619 55.564C60.8987 56.9021 58.385 57.5813 55.8339 57.5171C54.056 57.5206 52.2929 57.1982 50.6339 56.5663C49.1198 56.005 47.7454 55.1286 46.6039 53.9965C45.4601 52.788 44.5756 51.3632 44.0039 49.8078C42.7953 46.3709 42.7953 42.6315 44.0039 39.1946C44.5764 37.6319 45.4605 36.1988 46.6039 34.9802C47.733 33.7639 49.1053 32.7926 50.6339 32.1278C52.2742 31.4254 54.0465 31.0751 55.8339 31.0999C57.7284 30.9957 59.6201 31.3484 61.3459 32.1278C62.8885 32.9301 64.2231 34.0733 65.2459 35.4685C66.2752 36.9097 67.0165 38.532 67.4299 40.2482C67.882 42.0798 68.0399 43.9703 67.8979 45.8503H49.9579V45.9531ZM59.4999 37.6271C58.9864 37.1359 58.3731 36.7582 57.7008 36.519C57.0284 36.2797 56.3123 36.1844 55.5999 36.2394C54.7009 36.2288 53.8114 36.4222 52.9999 36.8047C52.3336 37.14 51.7483 37.6133 51.2839 38.1924C50.8632 38.7171 50.5537 39.3201 50.3739 39.9656C50.2164 40.5113 50.1119 41.0706 50.0619 41.6359H61.2159C61.0849 40.1545 60.4844 38.7516 59.4999 37.6271ZM48.5539 24.4185H62.4899V27.8876H48.5539V24.4185ZM37.1139 54.4847C35.933 55.3258 34.6005 55.9363 33.1879 56.2836C31.7215 56.6727 30.2083 56.8629 28.6899 56.8489H12.0239V22.1571H28.2479C29.7591 22.1344 31.2681 22.281 32.7459 22.5939C33.9836 22.8427 35.159 23.3318 36.2039 24.033C37.1603 24.6854 37.9305 25.5705 38.4399 26.6028C38.9947 27.8843 39.2609 29.2697 39.2199 30.663C39.2724 32.2047 38.8558 33.7265 38.0239 35.0316C37.1352 36.2838 35.9231 37.2776 34.5139 37.9097C36.4317 38.3962 38.1102 39.5447 39.2459 41.1476C40.3163 42.8103 40.8512 44.7547 40.7799 46.724C40.8191 48.2989 40.4711 49.8597 39.7659 51.2725C39.1701 52.5472 38.2578 53.6521 37.1139 54.4847ZM31.4719 30.0462C31.1966 29.5486 30.793 29.1319 30.3019 28.8385C29.79 28.5341 29.2261 28.3251 28.6379 28.2217C27.9831 28.1338 27.3228 28.0909 26.6619 28.0932H19.6159V36.2137H27.4159C28.6057 36.2746 29.7805 35.9299 30.7439 35.2372C31.172 34.8459 31.5009 34.3605 31.7041 33.8204C31.9074 33.2802 31.9792 32.7004 31.9139 32.1278C31.9392 31.4088 31.7875 30.6945 31.4719 30.0462ZM31.7839 42.4068C30.6381 41.5882 29.244 41.1803 27.8319 41.2504H19.6159V50.8357H27.7019C28.4192 50.8393 29.1345 50.7617 29.8339 50.6044C30.4479 50.5466 31.0465 50.3812 31.6019 50.1161C32.1249 49.767 32.5462 49.2885 32.8239 48.7285C33.1566 48.0219 33.3083 47.2453 33.2659 46.4671C33.3784 45.7219 33.3019 44.9608 33.0432 44.2521C32.7846 43.5434 32.3518 42.9094 31.7839 42.4068Z" fill="black"/>
</svg>
