<svg width="42" height="42" viewBox="0 0 42 42" fill="none" xmlns="http://www.w3.org/2000/svg">
<g clip-path="url(#clip0_98_48)">
<path d="M19.2622 -1.78854e-05C17.885 0.0542321 16.611 0.647482 15.3737 1.19873C14.3215 1.69655 13.2306 2.10799 12.1117 2.42898C11.0005 2.73698 9.83673 3.04848 8.93723 3.80798C8.54873 4.12298 8.31423 4.57623 8.01148 4.96648C7.47073 5.81698 7.22748 6.83373 7.21173 7.83298C7.27473 8.90048 7.58973 9.93298 7.86973 10.9585C8.51373 13.167 9.28198 15.3387 9.96448 17.5367C10.605 19.5685 11.1947 21.6387 12.229 23.5147C12.5737 24.2042 12.8415 24.9287 13.1652 25.6252C13.2125 25.7425 13.2562 25.9017 13.4137 25.886C13.6517 25.865 13.839 25.6847 14.0577 25.599C15.5067 24.8745 17.1027 24.4755 18.704 24.2882C19.943 24.1587 21.2065 24.1517 22.4332 24.3827C23.6932 24.668 24.913 25.1282 26.0942 25.6497C26.7242 25.9507 27.3525 26.2587 27.9982 26.5212C28.0822 26.5912 28.2345 26.6227 28.2782 26.4932C28.6615 25.921 29.099 25.382 29.4455 24.7852C30.3117 22.9285 30.359 20.797 31.262 18.956C31.8885 17.6942 32.823 16.6162 33.4775 15.372C33.7837 14.9065 34.2317 14.5547 34.5065 14.0647C35.2712 12.894 35.8715 11.6182 36.344 10.3022C36.5225 9.78948 36.645 9.23123 36.5015 8.69398C36.3965 8.17073 36.148 7.69648 35.945 7.20998C35.8395 6.80348 35.6756 6.41443 35.4585 6.05498C34.7462 4.87198 33.586 4.04423 32.4082 3.36698C30.5795 2.33448 28.5652 1.67123 26.544 1.12698C24.3997 0.557715 22.2076 0.186326 19.9955 0.0174821C19.7508 0.00136419 19.5056 -0.00447429 19.2605 -1.78854e-05H19.2622ZM17.7065 1.06048C17.2497 1.45073 17.0712 2.05623 16.8875 2.60573C16.5935 3.59973 16.4272 4.64098 16.5252 5.67873C16.6372 7.53723 16.87 9.38873 17.1027 11.235C17.4177 13.601 17.78 15.96 18.2875 18.2945C18.333 18.5832 18.3995 18.9017 18.375 19.187C18.1737 18.8807 18.0565 18.5167 17.9235 18.172C17.486 16.8332 17.1675 15.4612 16.8665 14.0875C16.3281 11.6011 15.9991 9.07404 15.883 6.53273C15.8392 5.05748 15.876 3.51223 16.5305 2.15598C16.737 1.76048 16.9837 1.35098 17.3705 1.11123C17.4873 1.04797 17.6193 1.01829 17.752 1.02548L17.7065 1.06048ZM11.403 3.09748C11.627 3.09748 11.6462 3.37573 11.697 3.53848C12.1625 4.93498 12.4355 6.38748 12.8852 7.78748C13.1897 8.92323 13.3017 10.1027 13.4242 11.2717C13.594 13.09 13.6132 14.9205 13.8547 16.7317C13.9002 17.08 13.9982 17.4195 14.063 17.7642C14.0805 17.8815 13.9597 17.85 13.9177 17.7887C13.6587 17.507 13.5975 17.1045 13.4872 16.7527C13.2072 15.624 13.0637 14.469 12.9027 13.3192C12.5982 11.0162 12.4005 8.69923 11.977 6.41548C11.7005 5.34448 11.354 4.28923 11.172 3.19898C11.1825 3.10973 11.3347 3.11498 11.403 3.09748ZM8.03073 6.31223C8.43148 6.41023 8.66948 6.78123 8.92673 7.07173C9.62673 8.00798 9.87173 9.17873 10.143 10.297C10.6382 12.5107 10.9235 14.7647 11.4117 16.982C11.641 18.1475 11.9245 19.3025 12.299 20.4312C12.3235 20.5205 12.3602 20.664 12.3655 20.7287C11.9577 19.9762 11.6777 19.1607 11.3767 18.361C10.3302 15.3895 9.93648 12.243 9.10173 9.21198C8.86898 8.37548 8.56273 7.54948 8.05873 6.83548C7.97648 6.68148 7.91873 6.47848 7.99398 6.31573C8.00448 6.30873 8.01848 6.31048 8.02898 6.31223H8.03073ZM30.1612 29.4052C29.9232 29.4175 29.6187 29.5977 29.6782 29.8725C29.8427 30.254 30.2627 30.4115 30.5987 30.6005C31.3705 30.9785 32.2402 31.108 32.9752 31.556C33.1362 31.661 33.236 31.9007 33.0872 32.0582C32.7722 32.5237 32.2647 32.8282 31.822 33.1677C31.171 33.6332 30.4622 34.0602 29.9722 34.706C29.8567 34.8932 29.9005 35.1732 30.1157 35.266C30.3065 35.4042 30.541 35.2975 30.7072 35.1767C31.6137 34.6622 32.4485 34.0322 33.2937 33.4232C33.8537 33.005 34.4207 32.5885 34.9142 32.0932C35.063 31.857 34.8617 31.6137 34.7077 31.444C34.23 30.9452 33.6227 30.5917 33.019 30.2715C32.2188 29.8517 31.3579 29.5594 30.4675 29.4052C30.3655 29.3981 30.2632 29.3981 30.1612 29.4052ZM10.43 29.4525C9.50773 29.687 8.68523 30.1875 7.85048 30.6302C7.10673 31.0555 6.35598 31.4982 5.74173 32.102C5.53585 32.3377 5.42813 32.6433 5.44073 32.956C5.55448 33.145 5.79073 33.201 5.96748 33.3165C7.45848 34.09 9.00373 34.755 10.57 35.3605C10.801 35.434 11.0337 35.5582 11.2805 35.5477C11.557 35.5127 11.8212 35.1907 11.6532 34.9247C11.3977 34.4995 10.9182 34.293 10.5157 34.0392C9.55848 33.509 8.49623 33.1432 7.65273 32.4327C7.57223 32.2735 7.81723 32.2087 7.90123 32.1177C8.86198 31.4265 10.052 31.08 10.899 30.233C11.0547 30.0755 11.186 29.7797 10.983 29.6065C10.8325 29.4787 10.6225 29.4542 10.43 29.4525ZM24.6312 30.8402C23.8787 30.8875 23.17 31.5945 23.2767 32.3732C23.3327 32.8265 23.4325 33.292 23.6757 33.684C23.8857 33.999 24.2532 34.1845 24.6312 34.1862C25.109 34.2405 25.6637 34.083 25.9017 33.6297C26.1415 33.215 26.2727 32.7302 26.2605 32.2525C26.194 31.4475 25.445 30.7737 24.633 30.8402H24.6312ZM16.7737 30.8577C15.9617 30.9067 15.3615 31.7415 15.4262 32.5255C15.4455 33.3025 15.9775 34.104 16.765 34.265C17.381 34.37 18.0075 33.9325 18.1702 33.3375C18.389 32.725 18.4012 32.0057 18.0932 31.4212C17.8185 30.9837 17.2567 30.849 16.7737 30.8577ZM16.9697 32.0005C17.3915 32.1125 17.4842 32.823 17.0485 32.977C16.8017 33.0365 16.6302 32.767 16.639 32.55C16.625 32.3277 16.7265 32.0477 16.9697 32.0005ZM24.7345 32.2507C24.9042 32.2507 25.13 32.375 25.067 32.578C25.0442 32.8772 24.6907 33.1607 24.4072 32.9735C24.1762 32.851 24.1062 32.4555 24.3722 32.3295C24.4842 32.2726 24.609 32.2454 24.7345 32.2507ZM18.578 37.4605C17.6102 37.5497 16.751 38.0467 15.8795 38.4387C15.3475 38.7117 14.721 38.9847 14.1207 38.766C13.461 38.556 12.8835 38.1535 12.2675 37.856C12.1362 37.8332 12.1607 37.9907 12.1852 38.0695C12.327 38.997 12.411 39.998 12.9797 40.782C13.5712 41.5467 14.5582 41.8635 15.4875 41.9492C16.8822 42.0752 18.361 41.7427 19.4617 40.8485C20.0025 40.39 20.461 39.7442 20.4855 39.0127C20.475 38.4457 20.0585 37.9697 19.5685 37.7282C19.2691 37.5498 18.9265 37.4571 18.578 37.4605ZM23.093 37.4745C22.4 37.5655 21.6667 37.933 21.392 38.612C21.1662 39.2385 21.4515 39.921 21.868 40.397C22.6135 41.2877 23.7405 41.7847 24.8745 41.944C25.8842 42.0805 26.95 41.9685 27.874 41.524C28.6405 41.1302 29.2162 40.3777 29.3615 39.5255C29.4735 39.0162 29.5032 38.493 29.5785 37.9785C29.463 37.842 29.3195 38.045 29.197 38.0695C28.6072 38.318 28.0647 38.7117 27.4295 38.8307C26.7942 38.8727 26.2272 38.5297 25.6532 38.318C24.9007 38.0065 24.164 37.6127 23.352 37.4815C23.2664 37.4739 23.1788 37.4716 23.093 37.4745ZM18.0512 28.5652C17.9287 28.5652 17.801 28.5897 17.6732 28.6177C17.4016 28.6846 17.1359 28.7735 16.8787 28.8837C16.6162 28.9905 16.3677 29.106 16.1665 29.1987C16.0409 29.2561 15.9137 29.3098 15.785 29.3597C15.6751 29.377 15.5627 29.356 15.4665 29.3002C15.358 29.2355 15.2565 29.1235 15.2197 28.854L14.7472 28.9205C14.8015 29.302 14.9922 29.568 15.2197 29.708C15.4472 29.8462 15.6887 29.8655 15.8812 29.8252C16.03 29.7937 16.1612 29.7237 16.3642 29.631C16.5672 29.5382 16.8105 29.4245 17.059 29.323C17.3092 29.2215 17.563 29.1305 17.7765 29.0815C17.92 29.0401 18.0714 29.0347 18.2175 29.0657C18.4625 29.1707 18.55 29.2932 18.5937 29.379C18.6375 29.4665 18.6462 29.4962 18.6462 29.4962L19.1065 29.3912C19.1065 29.3912 19.11 29.3492 19.019 29.1672C18.8846 28.9215 18.6677 28.7312 18.4065 28.63C18.2936 28.5828 18.1735 28.5607 18.0512 28.5652ZM22.8532 35.455C22.8189 35.4558 22.7852 35.4641 22.7544 35.4792C22.7236 35.4943 22.6964 35.5159 22.6747 35.5425C22.6747 35.5425 22.4612 35.8015 22.1742 36.0587C21.8855 36.3177 21.5092 36.5487 21.3115 36.554C21.1155 36.5592 20.762 36.3475 20.489 36.099C20.2177 35.854 20.0217 35.602 20.0217 35.602C20.0034 35.5751 19.9797 35.5523 19.9522 35.5349C19.9247 35.5176 19.8939 35.506 19.8618 35.501C19.8297 35.496 19.7968 35.4976 19.7653 35.5058C19.7339 35.514 19.7044 35.5285 19.6787 35.5486C19.6531 35.5686 19.6318 35.5936 19.6162 35.6222C19.6007 35.6507 19.5911 35.6822 19.5882 35.7146C19.5852 35.747 19.5889 35.7796 19.5991 35.8105C19.6092 35.8414 19.6256 35.8699 19.6472 35.8942C19.6472 35.8942 19.8642 36.1742 20.1705 36.4525C20.4767 36.7325 20.8652 37.0422 21.3255 37.03C21.7787 37.016 22.1725 36.6975 22.491 36.414C22.8095 36.1287 23.0422 35.8452 23.0422 35.8452C23.0715 35.8101 23.09 35.7672 23.0956 35.7218C23.1012 35.6764 23.0935 35.6303 23.0736 35.5892C23.0536 35.548 23.0222 35.5134 22.9832 35.4896C22.9441 35.4658 22.899 35.4538 22.8532 35.455ZM19.2622 0.00173211C17.885 0.0542321 16.611 0.645732 15.3737 1.19873C14.3215 1.69655 13.2306 2.10799 12.1117 2.42898C11.0005 2.73698 9.83673 3.04848 8.93723 3.80798C8.54873 4.12298 8.31423 4.57623 8.01148 4.96648C7.47073 5.81698 7.22748 6.83373 7.21173 7.83298C7.27473 8.90048 7.58973 9.93298 7.86973 10.9585C8.51373 13.1687 9.28198 15.3387 9.96448 17.5367C10.605 19.5685 11.1947 21.6387 12.229 23.5147C12.5737 24.2042 12.8415 24.9287 13.1652 25.6252C13.2125 25.7425 13.2562 25.9017 13.4137 25.8877C13.6517 25.865 13.839 25.6847 14.0577 25.599C15.5067 24.8745 17.1027 24.4772 18.704 24.2882C19.943 24.1587 21.2065 24.1517 22.4332 24.3845C23.6932 24.6697 24.913 25.1282 26.0942 25.6497C26.7242 25.9507 27.3525 26.2587 27.9982 26.5212C28.0822 26.5912 28.2345 26.6227 28.2782 26.4932C28.6615 25.921 29.099 25.382 29.4455 24.7852C30.3117 22.9267 30.359 20.797 31.262 18.956C31.8885 17.6942 32.823 16.6162 33.4775 15.372C33.7837 14.9065 34.2317 14.5547 34.5065 14.0665C35.2712 12.894 35.8715 11.6165 36.344 10.3022C36.5225 9.78948 36.645 9.23123 36.5015 8.69398C36.3965 8.17073 36.148 7.69648 35.945 7.20998C35.8395 6.80348 35.6756 6.41443 35.4585 6.05498C34.7462 4.87198 33.586 4.04423 32.4082 3.36698C30.5795 2.33273 28.5652 1.67123 26.544 1.12698C24.3997 0.557715 22.2076 0.186326 19.9955 0.0174821C19.7508 0.00136419 19.5056 -0.00447429 19.2605 -1.78854e-05L19.2622 0.00173211ZM17.7065 1.06048C17.2497 1.44898 17.0712 2.05623 16.8875 2.60748C16.5935 3.59973 16.4272 4.64273 16.5252 5.67873C16.6372 7.53723 16.87 9.38873 17.1027 11.235C17.4177 13.601 17.78 15.9617 18.2875 18.2945C18.333 18.5832 18.3995 18.9017 18.375 19.187C18.1737 18.8807 18.0565 18.5167 17.9235 18.172C17.486 16.8332 17.1675 15.4612 16.8665 14.0875C16.3281 11.6011 15.9991 9.07404 15.883 6.53273C15.8392 5.05748 15.876 3.51223 16.5305 2.15598C16.737 1.76223 16.9837 1.35098 17.3705 1.11123C17.4873 1.04797 17.6193 1.01829 17.752 1.02548L17.7065 1.06048ZM11.403 3.09748C11.627 3.09748 11.6462 3.37748 11.697 3.53848C12.1625 4.93498 12.4355 6.38748 12.8852 7.78923C13.1897 8.92323 13.3017 10.1027 13.4242 11.2717C13.594 13.09 13.6132 14.9205 13.8547 16.7317C13.9002 17.08 13.9982 17.4212 14.063 17.7642C14.0805 17.8832 13.9597 17.8517 13.9177 17.7887C13.6587 17.5087 13.5975 17.1062 13.4872 16.7527C13.2072 15.624 13.0637 14.469 12.9027 13.3192C12.5982 11.0162 12.4005 8.69923 11.977 6.41548C11.7005 5.34448 11.354 4.28923 11.172 3.19898C11.1825 3.10973 11.3347 3.11498 11.403 3.09748ZM8.03073 6.31223C8.43148 6.40848 8.66948 6.78123 8.92673 7.07173C9.62673 8.00798 9.87173 9.17873 10.143 10.297C10.6382 12.5107 10.9235 14.7647 11.4117 16.982C11.641 18.1475 11.9245 19.3025 12.299 20.4312C12.3235 20.5205 12.3602 20.664 12.3655 20.7287C11.9577 19.9762 11.6777 19.1607 11.3767 18.3627C10.3302 15.3877 9.93648 12.2447 9.10173 9.21198C8.86898 8.37548 8.56273 7.54948 8.05873 6.83548C7.97648 6.68323 7.91873 6.47673 7.99398 6.31573C8.00448 6.30873 8.01848 6.31048 8.02898 6.31223H8.03073ZM30.1612 29.4052C29.9232 29.4175 29.6187 29.596 29.6782 29.8725C29.8427 30.2522 30.2627 30.4097 30.5987 30.6005C31.3705 30.9767 32.2402 31.108 32.9752 31.556C33.1362 31.661 33.236 31.9007 33.0872 32.0582C32.7722 32.5237 32.2647 32.8282 31.822 33.1677C31.171 33.6332 30.4622 34.0602 29.9722 34.706C29.8567 34.8932 29.9005 35.1732 30.1157 35.266C30.3065 35.4042 30.541 35.2975 30.7072 35.1767C31.6137 34.6622 32.4485 34.0322 33.2937 33.4232C33.8537 33.0032 34.4207 32.5885 34.9142 32.0932C35.063 31.857 34.8617 31.612 34.7077 31.444C34.23 30.9435 33.6227 30.5935 33.019 30.2715C32.2186 29.8529 31.3577 29.56 30.4675 29.407C30.3656 29.3993 30.2632 29.3987 30.1612 29.4052ZM10.4282 29.456C9.50598 29.6887 8.68348 30.191 7.84873 30.632C7.10498 31.0572 6.35423 31.5017 5.73998 32.1055C5.53452 32.3407 5.42683 32.6456 5.43898 32.9577C5.55273 33.1485 5.78898 33.2027 5.96573 33.3182C7.45673 34.0917 9.00198 34.7585 10.5682 35.3622C10.7992 35.4357 11.032 35.56 11.2787 35.5512C11.5552 35.5162 11.8195 35.1925 11.6515 34.9265C11.396 34.5012 10.9165 34.2947 10.514 34.041C9.55673 33.5107 8.49448 33.145 7.65098 32.4345C7.57048 32.277 7.81548 32.2105 7.89948 32.1195C8.86023 31.43 10.0502 31.0835 10.8972 30.2347C11.053 30.0772 11.1842 29.7832 10.9812 29.61C10.8307 29.4805 10.6207 29.456 10.4282 29.456ZM24.6295 30.842C23.877 30.891 23.1682 31.598 23.275 32.375C23.331 32.83 23.4307 33.2955 23.674 33.6875C23.884 34.0007 24.2515 34.1862 24.6295 34.1897C25.1072 34.2422 25.662 34.0847 25.9 33.6315C26.1433 33.2138 26.2673 32.7375 26.2587 32.2542C26.1922 31.4492 25.4415 30.7772 24.6295 30.842ZM16.772 30.8595C15.96 30.9085 15.3597 31.7432 15.4245 32.5272C15.4437 33.3042 15.9757 34.1057 16.7632 34.2685C17.3792 34.3717 18.0057 33.936 18.1685 33.341C18.3872 32.7285 18.3995 32.0075 18.0915 31.423C17.8167 30.9872 17.255 30.8507 16.772 30.8595ZM16.968 32.004C17.3897 32.1142 17.4825 32.8265 17.0467 32.9787C16.8 33.0382 16.6285 32.7687 16.6372 32.5517C16.6232 32.3295 16.7247 32.0495 16.968 32.004ZM24.7327 32.2525C24.9025 32.2525 25.1282 32.3785 25.0652 32.5797C25.0425 32.8807 24.689 33.1625 24.4055 32.977C24.1745 32.8527 24.1045 32.4572 24.3705 32.3312C24.4825 32.2743 24.6072 32.2472 24.7327 32.2525ZM18.5762 37.4622C17.6085 37.5532 16.7492 38.0502 15.8777 38.4422C15.3457 38.7135 14.7192 38.9865 14.119 38.7677C13.4592 38.5595 12.8817 38.1552 12.2657 37.8577C12.1345 37.8367 12.159 37.9942 12.1835 38.0712C12.3252 38.9987 12.4092 39.9997 12.978 40.7837C13.5695 41.5502 14.5565 41.867 15.4857 41.951C16.8805 42.077 18.3592 41.7445 19.46 40.8502C20.0007 40.3917 20.4592 39.7477 20.4837 39.0145C20.4732 38.4475 20.0567 37.9715 19.5667 37.73C19.2674 37.5515 18.9247 37.4589 18.5762 37.4622ZM23.0912 37.4762C22.3982 37.5672 21.665 37.9347 21.3902 38.6137C21.1645 39.242 21.4497 39.9227 21.8662 40.4005C22.6117 41.2895 23.7387 41.7865 24.8727 41.9457C25.8825 42.0822 26.9482 41.972 27.8722 41.5257C28.6387 41.132 29.2145 40.3795 29.3597 39.5272C29.4717 39.0197 29.5015 38.4947 29.5767 37.9802C29.4612 37.8455 29.3177 38.0485 29.1952 38.0712C28.6055 38.3215 28.063 38.7135 27.4277 38.8342C26.7925 38.8762 26.2255 38.5332 25.6515 38.3197C24.899 38.0082 24.1622 37.6162 23.3502 37.485C23.2647 37.4774 23.1788 37.4751 23.093 37.478L23.0912 37.4762Z" fill="white"/>
</g>
<defs>
<clipPath id="clip0_98_48">
<rect width="42" height="42" fill="white"/>
</clipPath>
</defs>
</svg>
