<svg width="24" height="24" viewBox="0 0 24 24" fill="none" xmlns="http://www.w3.org/2000/svg">
<path d="M12 0C7.02975 0 3 4.02975 3 9C3 10.9571 3.64163 12.753 4.70813 14.2238C4.72725 14.259 4.73025 14.2984 4.752 14.3321L10.752 23.3321C11.0303 23.7495 11.499 24 12 24C12.501 24 12.9697 23.7495 13.248 23.3321L19.248 14.3321C19.2701 14.2984 19.2727 14.259 19.2919 14.2238C20.3584 12.753 21 10.9571 21 9C21 4.02975 16.9703 0 12 0ZM12 12C10.3432 12 9 10.6567 9 9C9 7.34325 10.3432 6 12 6C13.6567 6 15 7.34325 15 9C15 10.6567 13.6567 12 12 12Z" fill="white"/>
</svg>
