<svg width="24" height="24" viewBox="0 0 24 24" fill="none" xmlns="http://www.w3.org/2000/svg">
<g clip-path="url(#clip0_11_44)">
<path d="M21 7.5H3C1.34315 7.5 0 8.84315 0 10.5V20.5C0 22.1569 1.34315 23.5 3 23.5H21C22.6569 23.5 24 22.1569 24 20.5V10.5C24 8.84315 22.6569 7.5 21 7.5Z" fill="white"/>
<path d="M19 2.5C19 1.39543 18.1046 0.5 17 0.5C15.8954 0.5 15 1.39543 15 2.5V7.5C15 8.60457 15.8954 9.5 17 9.5C18.1046 9.5 19 8.60457 19 7.5V2.5Z" fill="white"/>
<path d="M17.5 3.5C18.3284 3.5 19 2.82843 19 2C19 1.17157 18.3284 0.5 17.5 0.5L6.5 0.5C5.67157 0.5 5 1.17157 5 2C5 2.82843 5.67157 3.5 6.5 3.5L17.5 3.5Z" fill="white"/>
<path d="M9 2.5C9 1.39543 8.10457 0.5 7 0.5C5.89543 0.5 5 1.39543 5 2.5V7.5C5 8.60457 5.89543 9.5 7 9.5C8.10457 9.5 9 8.60457 9 7.5V2.5Z" fill="white"/>
</g>
<defs>
<clipPath id="clip0_11_44">
<rect width="24" height="23" fill="white" transform="translate(0 0.5)"/>
</clipPath>
</defs>
</svg>
