<svg width="80" height="80" viewBox="0 0 80 80" fill="none" xmlns="http://www.w3.org/2000/svg">
<path d="M79.2031 24.0001C79.2031 24.0001 78.4219 18.4845 76.0156 16.0626C72.9688 12.8751 69.5625 12.8595 68 12.672C56.8125 11.8595 40.0156 11.8595 40.0156 11.8595H39.9844C39.9844 11.8595 23.1875 11.8595 12 12.672C10.4375 12.8595 7.03125 12.8751 3.98438 16.0626C1.57813 18.4845 0.8125 24.0001 0.8125 24.0001C0.8125 24.0001 0 30.4845 0 36.9532V43.0157C0 49.4845 0.796875 55.9689 0.796875 55.9689C0.796875 55.9689 1.57812 61.4845 3.96875 63.9064C7.01562 67.0939 11.0156 66.9845 12.7969 67.3283C19.2031 67.9376 40 68.1251 40 68.1251C40 68.1251 56.8125 68.0939 68 67.297C69.5625 67.1095 72.9688 67.0939 76.0156 63.9064C78.4219 61.4845 79.2031 55.9689 79.2031 55.9689C79.2031 55.9689 80 49.5001 80 43.0157V36.9532C80 30.4845 79.2031 24.0001 79.2031 24.0001ZM31.7344 50.3751V27.8907L53.3437 39.172L31.7344 50.3751Z" fill="white"/>
</svg>
