<svg width="240" height="234" viewBox="0 0 240 234" fill="none" xmlns="http://www.w3.org/2000/svg">
<g clip-path="url(#clip0_345_159)">
<mask id="mask0_345_159" style="mask-type:luminance" maskUnits="userSpaceOnUse" x="0" y="0" width="240" height="234">
<path d="M240 0H0V234H240V0Z" fill="white"/>
</mask>
<g mask="url(#mask0_345_159)">
<path d="M42.5 1.88608e-05H197.5C203.083 -0.00524284 208.612 1.09046 213.77 3.22442C218.929 5.35838 223.616 8.48871 227.564 12.4362C231.511 16.3838 234.642 21.071 236.776 26.2297C238.91 31.3885 240.005 36.9174 240 42.5V191.5C240.005 197.083 238.91 202.612 236.776 207.77C234.642 212.929 231.511 217.616 227.564 221.564C223.616 225.511 218.929 228.642 213.77 230.776C208.612 232.91 203.083 234.005 197.5 234H42.5C36.9173 234.005 31.3884 232.91 26.2297 230.776C21.071 228.642 16.3838 225.511 12.4362 221.564C8.48871 217.616 5.35838 212.929 3.22442 207.77C1.09046 202.612 -0.00524284 197.083 1.88608e-05 191.5V42.5C-0.00524284 36.9174 1.09046 31.3885 3.22442 26.2297C5.35838 21.071 8.48871 16.3838 12.4362 12.4362C16.3838 8.48871 21.071 5.35838 26.2297 3.22442C31.3884 1.09046 36.9173 -0.00524284 42.5 1.88608e-05Z" fill="black"/>
<path d="M96.4 140H59.2L51.6 163.6C51.5151 164.028 51.2731 164.409 50.9215 164.668C50.57 164.927 50.1343 165.046 49.7 165H30.9C29.8 165 29.5 164.4 29.8 163.2L62 70.9C62.3 69.9 62.6 69 63 67.8C63.4024 65.6568 63.6033 63.4806 63.6 61.2999C63.57 61.0495 63.6358 60.7969 63.7842 60.5929C63.9325 60.3889 64.1525 60.2486 64.4 60.2H90.3C91 60.2 91.5 60.5 91.6 61L128.1 163.5C128.4 164.6 128.1 165.1 127.1 165.1H106.2C105.847 165.134 105.492 165.042 105.2 164.841C104.907 164.64 104.695 164.342 104.6 164L96.4 140ZM65 120.1H90.4C89.8 118 89 115.5 88.1 112.9C87.2 110.3 86.3 107.3 85.4 104.3C84.5 101.3 83.5 98.1998 82.5 95.0998C81.5 91.9998 80.6 89.0998 79.8 86.1998C79 83.2998 78.3 80.8 77.6 78.4H77.4C76.5013 82.7584 75.3663 87.0647 74 91.3C72.5 96.1 71 101.1 69.4 106.1C68.1 111.2 66.5 115.9 65 120.1Z" fill="white"/>
<path d="M187.4 130.8H155.7C156.078 133.956 157.136 136.992 158.8 139.7C160.567 142.395 163.114 144.488 166.1 145.7C170.142 147.429 174.505 148.281 178.9 148.2C182.392 148.136 185.872 147.768 189.3 147.1C192.35 146.701 195.339 145.928 198.2 144.8C198.7 144.4 199 144.6 199 145.6V160.9C198.982 161.307 198.915 161.71 198.8 162.1C198.619 162.381 198.381 162.619 198.1 162.8C194.902 164.205 191.543 165.212 188.1 165.8C183.422 166.7 178.662 167.102 173.9 167C166.3 167 159.9 165.8 154.7 163.5C149.807 161.376 145.488 158.12 142.1 154C138.934 150.148 136.586 145.69 135.2 140.9C132.27 130.924 132.409 120.296 135.6 110.4C137.195 105.393 139.741 100.741 143.1 96.7001C146.407 92.7039 150.533 89.4643 155.2 87.2001C159.9 84.9001 165.5 84.1001 171.9 84.1001C177.232 83.9763 182.526 85.035 187.4 87.2001C191.497 88.9761 195.1 91.7216 197.9 95.2001C200.558 98.6155 202.59 102.475 203.9 106.6C205.172 110.541 205.813 114.659 205.8 118.8C205.8 121.2 205.7 123.3 205.6 125.2C205.5 127.1 205.3 128.5 205.2 129.4C205.156 129.746 204.992 130.066 204.736 130.304C204.48 130.542 204.149 130.682 203.8 130.7C203.2 130.7 202.1 130.8 200.5 130.9C198.575 131.119 196.638 131.219 194.7 131.2C192.4 131.2 190 130.8 187.4 130.8ZM155.7 116.2H176.8C179.4 116.2 181.3 116.2 182.5 116.1C183.322 116.032 184.113 115.756 184.8 115.3V114.3C184.804 113.042 184.601 111.792 184.2 110.6C183.325 107.864 181.583 105.486 179.238 103.827C176.893 102.167 174.072 101.316 171.2 101.4C168.486 101.248 165.786 101.884 163.426 103.233C161.066 104.582 159.147 106.585 157.9 109C156.733 111.246 155.988 113.686 155.7 116.2Z" fill="white"/>
</g>
</g>
<defs>
<clipPath id="clip0_345_159">
<rect width="240" height="234" fill="white"/>
</clipPath>
</defs>
</svg>
