<svg width="138" height="112" viewBox="0 0 138 112" fill="none" xmlns="http://www.w3.org/2000/svg">
<g clip-path="url(#clip0_206_4)">
<path d="M137.594 62.3689C136.784 56.6857 134.811 51.2961 131.727 46.3516C129.038 42.0363 125.587 38.1984 121.467 34.9364L121.479 34.9262L78.2179 1.78141C78.1867 1.75402 78.1542 1.72822 78.1204 1.7041C76.6821 0.605012 74.7348 0.000244141 72.6392 0.000244141C70.5409 0.000244141 68.5174 0.606359 66.9444 1.7076C65.2531 2.88616 64.2863 4.44993 64.2188 6.11446C64.1569 7.66746 64.8996 9.16173 66.3154 10.3266C69.0997 12.518 71.8777 14.7571 74.6594 16.9989C77.3591 19.1756 80.1409 21.4171 82.9092 23.5994L29.9219 23.5636C23.8622 23.5636 19.7361 26.4021 18.8874 31.1543C18.5144 33.2358 19.1725 35.5245 20.6438 37.2774C22.2047 39.1356 24.4709 40.1606 27.0248 40.1606L31.0642 40.1633C36.6445 40.1633 42.2494 40.1495 47.8467 40.1361L53.1845 40.1237L5.09403 75.6145L4.9031 75.7538C2.21691 77.8076 0.458348 80.687 0.0789275 83.6532C-0.208676 85.9004 0.316842 87.9539 1.59931 89.5939C3.12779 91.5491 5.51422 92.6245 8.3195 92.6245C11.0754 92.6245 13.8874 91.5828 16.2411 89.6861L42.2108 68.4855C42.0998 69.5208 41.965 71.0396 41.9804 72.1419C42.0096 73.8872 42.5713 77.3892 43.4606 80.2323C45.298 86.0752 48.393 91.4212 52.6593 96.116C57.0984 101 62.5048 104.873 68.7273 107.625C75.3057 110.527 82.3775 112 89.7469 112H89.8152C97.2081 111.982 104.302 110.486 110.902 107.55C117.135 104.766 122.539 100.878 126.961 95.9942C131.222 91.2754 134.313 85.9206 136.147 80.0825C137.054 77.1925 137.635 74.2106 137.879 71.192C138.106 68.2746 138.008 65.306 137.594 62.3689ZM90.2856 90.3738C74.0445 90.3738 60.8742 78.6214 60.8742 64.1231C60.8742 49.6265 74.0448 37.874 90.2856 37.874C106.527 37.874 119.696 49.6265 119.696 64.1231C119.696 78.6214 106.527 90.3738 90.2856 90.3738ZM107.247 61.8164C107.486 66.1435 105.754 70.1614 102.711 73.1356C99.6158 76.1657 95.1994 78.0689 90.2608 78.0689C85.3243 78.0689 80.907 76.1657 77.8109 73.1356C74.7696 70.1614 73.0405 66.144 73.2787 61.8199C73.512 57.6167 75.5674 53.9065 78.6632 51.2794C81.7075 48.6963 85.7952 47.1204 90.2605 47.1204C94.7263 47.1204 98.813 48.6968 101.858 51.2794C104.955 53.9065 107.011 57.614 107.247 61.8164Z" fill="white"/>
</g>
<defs>
<clipPath id="clip0_206_4">
<rect width="138" height="112" fill="white"/>
</clipPath>
</defs>
</svg>
