<svg width="122" height="122" viewBox="0 0 122 122" fill="none" xmlns="http://www.w3.org/2000/svg">
<g clip-path="url(#clip0_345_121)">
<mask id="mask0_345_121" style="mask-type:luminance" maskUnits="userSpaceOnUse" x="0" y="0" width="122" height="122">
<path d="M122 0H0V122H122V0Z" fill="white"/>
</mask>
<g mask="url(#mask0_345_121)">
<path d="M80.581 45.6534H57.2586V0H80.581C93.1673 0 103.405 10.2378 103.405 22.8242C103.405 35.4105 93.1673 45.6534 80.581 45.6534ZM64.7362 38.1758H80.581C89.0447 38.1758 95.9276 31.2879 95.9276 22.8293C95.9276 14.3706 89.0396 7.48267 80.581 7.48267H64.7362V38.1758ZM64.7362 45.6534H41.419C28.8326 45.6534 18.5948 35.4156 18.5948 22.8293C18.5948 10.2429 28.8326 0 41.419 0H64.7413V45.6534H64.7362ZM41.419 7.47758C32.9552 7.47758 26.0724 14.3655 26.0724 22.8242C26.0724 31.2828 32.9552 38.1758 41.419 38.1758H57.2637V7.47758H41.419ZM64.7362 83.8242H41.419C28.8326 83.8242 18.5948 73.5863 18.5948 61C18.5948 48.4137 28.8326 38.1758 41.419 38.1758H64.7413V83.8242H64.7362ZM41.419 45.6534C32.9552 45.6534 26.0724 52.5413 26.0724 61C26.0724 69.4587 32.9603 76.3466 41.419 76.3466H57.2637V45.6534H41.419ZM41.541 122C28.8886 122 18.5897 111.762 18.5897 99.1758C18.5897 86.5895 28.8276 76.3517 41.4139 76.3517H64.7362V98.9268C64.7362 111.65 54.3306 122 41.541 122ZM41.419 83.8242C37.3505 83.8295 33.4501 85.4481 30.5732 88.325C27.6964 91.2019 26.0778 95.1022 26.0724 99.1708C26.0724 107.635 33.0111 114.517 41.5461 114.517C50.2131 114.517 57.2688 107.523 57.2688 98.9217V83.8242H41.419ZM80.581 83.8242H80.0828C67.4965 83.8242 57.2586 73.5863 57.2586 61C57.2586 48.4137 67.4965 38.1758 80.0828 38.1758H80.581C93.1673 38.1758 103.405 48.4137 103.405 61C103.405 73.5863 93.1673 83.8242 80.581 83.8242ZM80.0879 45.6534C71.6241 45.6534 64.7413 52.5413 64.7413 61C64.7413 69.4587 71.6292 76.3466 80.0879 76.3466H80.586C89.0498 76.3466 95.9326 69.4587 95.9326 61C95.9326 52.5413 89.0396 45.6534 80.581 45.6534H80.0879Z" fill="black"/>
</g>
</g>
<defs>
<clipPath id="clip0_345_121">
<rect width="122" height="122" fill="white"/>
</clipPath>
</defs>
</svg>
