<svg width="42" height="42" viewBox="0 0 42 42" fill="none" xmlns="http://www.w3.org/2000/svg">
<g clip-path="url(#clip0_8_187)">
<path fill-rule="evenodd" clip-rule="evenodd" d="M21.0174 0C9.39531 0 0 9.46457 0 21.1735C0 30.5331 6.0199 38.4559 14.3711 41.2599C15.4152 41.4707 15.7977 40.8044 15.7977 40.2438C15.7977 39.7529 15.7632 38.0704 15.7632 36.3173C9.91672 37.5795 8.69923 33.7933 8.69923 33.7933C7.75966 31.3394 6.36751 30.7087 6.36751 30.7087C4.45394 29.4116 6.50689 29.4116 6.50689 29.4116C8.62954 29.5518 9.74335 31.585 9.74335 31.585C11.6221 34.8098 14.6494 33.8987 15.8674 33.3377C16.0412 31.9705 16.5983 31.024 17.1898 30.4983C12.5268 30.0074 7.6207 28.1846 7.6207 20.0516C7.6207 17.7379 8.45531 15.845 9.77777 14.3728C9.56911 13.8471 8.83819 11.6733 9.98685 8.76377C9.98685 8.76377 11.7615 8.20277 15.7628 10.9372C17.4759 10.4737 19.2427 10.2379 21.0174 10.2359C22.792 10.2359 24.601 10.4816 26.2715 10.9372C30.2733 8.20277 32.0479 8.76377 32.0479 8.76377C33.1966 11.6733 32.4652 13.8471 32.2566 14.3728C33.6139 15.845 34.4141 17.7379 34.4141 20.0516C34.4141 28.1846 29.508 29.9722 24.8101 30.4983C25.5759 31.1643 26.2367 32.4261 26.2367 34.4244C26.2367 37.2637 26.2022 39.5426 26.2022 40.2434C26.2022 40.8044 26.5851 41.4707 27.6288 41.2604C35.98 38.4554 41.9999 30.5331 41.9999 21.1735C42.0343 9.46457 32.6046 0 21.0174 0Z" fill="black"/>
</g>
<defs>
<clipPath id="clip0_8_187">
<rect width="42" height="42" fill="white"/>
</clipPath>
</defs>
</svg>
