<svg width="42" height="42" viewBox="0 0 42 42" fill="none" xmlns="http://www.w3.org/2000/svg">
<g clip-path="url(#clip0_19_279)">
<path d="M20.9997 17.1818V25.3145H32.3015C31.8052 27.93 30.3159 30.1446 28.0823 31.6336L34.8978 36.9219C38.8687 33.2565 41.1596 27.8729 41.1596 21.4774C41.1596 19.9884 41.026 18.5564 40.7777 17.182L20.9997 17.1818Z" fill="black"/>
<path d="M9.2307 24.997L7.69356 26.1737L2.25256 30.4118C5.70801 37.2654 12.7902 42 20.9992 42C26.6691 42 31.4227 40.1291 34.8973 36.9219L28.0819 31.6337C26.211 32.8937 23.8246 33.6574 20.9992 33.6574C15.5393 33.6574 10.9003 29.9729 9.23928 25.0092L9.2307 24.997Z" fill="black"/>
<path d="M2.25256 11.5882C0.820823 14.4135 0 17.6018 0 20.9999C0 24.398 0.820823 27.5862 2.25256 30.4116C2.25256 30.4305 9.23996 24.9898 9.23996 24.9898C8.81996 23.7298 8.57171 22.3935 8.57171 20.9997C8.57171 19.6058 8.81996 18.2696 9.23996 17.0096L2.25256 11.5882Z" fill="black"/>
<path d="M20.9997 8.36181C24.0924 8.36181 26.8415 9.43087 29.0369 11.4927L35.0505 5.47916C31.4041 2.08104 26.6697 0 20.9997 0C12.7906 0 5.70801 4.71545 2.25256 11.5882L9.23974 17.01C10.9006 12.0463 15.5397 8.36181 20.9997 8.36181Z" fill="black"/>
</g>
<defs>
<clipPath id="clip0_19_279">
<rect width="42" height="42" fill="black"/>
</clipPath>
</defs>
</svg>
