<svg width="42" height="42" viewBox="0 0 42 42" fill="none" xmlns="http://www.w3.org/2000/svg">
<path d="M38.5 25.1212C38.5 23.8227 37.513 22.7657 36.295 22.7657H18.683C17.465 22.7657 16.478 23.8227 16.478 25.1212C16.478 26.4197 17.4633 27.4767 18.683 27.4767H36.295C37.513 27.4785 38.5 26.4215 38.5 25.1212Z" fill="white"/>
<path d="M6.0935 31.8273L13.6413 39.459C15.344 41.1723 17.6977 42 20.2965 42C22.8952 42 25.249 41.104 26.9552 39.3855L31.4842 34.7708C32.3767 33.8713 32.3452 32.382 31.416 31.4458C30.4867 30.5095 29.0098 30.478 28.119 31.3775L23.436 35.9398C22.6275 36.757 21.5075 37.0983 20.2703 37.0983C19.033 37.0983 17.9147 36.757 17.1027 35.9398L9.58125 28.3045C8.771 27.4873 8.36325 26.292 8.36325 25.0443C8.36325 23.7965 8.771 22.6695 9.58125 21.8523L17.08 14.1873C17.8903 13.37 19.033 13.0585 20.2685 13.0585C21.504 13.0585 22.624 13.3998 23.4342 14.217L28.1172 18.7775C29.0097 19.6788 30.4867 19.6473 31.416 18.711C32.3452 17.773 32.3767 16.2838 31.4842 15.3843L26.9552 10.7713C25.8195 9.64076 24.381 8.81826 22.7692 8.44376L22.7098 8.43151L26.992 4.05126C27.888 3.15176 27.8565 1.66076 26.9273 0.72451C25.998 -0.21174 24.5192 -0.24149 23.625 0.65801L6.0935 18.333C4.39075 20.0515 3.5 22.4228 3.5 25.0443C3.5 27.6658 4.39075 30.1123 6.0935 31.8273Z" fill="white"/>
</svg>
