<svg width="240" height="234" viewBox="0 0 240 234" fill="none" xmlns="http://www.w3.org/2000/svg">
<g clip-path="url(#clip0_345_135)">
<mask id="mask0_345_135" style="mask-type:luminance" maskUnits="userSpaceOnUse" x="0" y="0" width="240" height="234">
<path d="M240 0H0V234H240V0Z" fill="white"/>
</mask>
<g mask="url(#mask0_345_135)">
<path d="M42.5 1.88608e-05H197.5C203.083 -0.00524284 208.612 1.09046 213.77 3.22442C218.929 5.35838 223.616 8.48871 227.564 12.4362C231.511 16.3838 234.642 21.071 236.776 26.2297C238.91 31.3885 240.005 36.9174 240 42.5V191.5C240.005 197.083 238.91 202.612 236.776 207.77C234.642 212.929 231.511 217.616 227.564 221.564C223.616 225.511 218.929 228.642 213.77 230.776C208.612 232.91 203.083 234.005 197.5 234H42.5C36.9174 234.005 31.3885 232.91 26.2297 230.776C21.071 228.642 16.3838 225.511 12.4362 221.564C8.48871 217.616 5.35838 212.929 3.22442 207.77C1.09046 202.612 -0.00524284 197.083 1.88608e-05 191.5V42.5C-0.00524284 36.9174 1.09046 31.3885 3.22442 26.2297C5.35838 21.071 8.48871 16.3838 12.4362 12.4362C16.3838 8.48871 21.071 5.35838 26.2297 3.22442C31.3885 1.09046 36.9174 -0.00524284 42.5 1.88608e-05Z" fill="black"/>
<path d="M126 165.4H62.6C61.5 165.4 61 164.8 61 163.6V61.4001C60.9777 61.2355 60.9887 61.0682 61.0322 60.9079C61.0758 60.7477 61.1511 60.5978 61.2537 60.4673C61.3563 60.3367 61.4841 60.228 61.6295 60.1478C61.7749 60.0675 61.9349 60.0173 62.1 60.0001H82.1C82.2251 59.9773 82.3535 59.9801 82.4775 60.0084C82.6015 60.0367 82.7184 60.0899 82.8212 60.1647C82.9241 60.2394 83.0107 60.3343 83.0758 60.4435C83.1409 60.5527 83.1831 60.674 83.2 60.8001V145.1H129.4C130.4 145.1 130.7 145.6 130.5 146.5L127.6 163.9C127.584 164.13 127.523 164.354 127.42 164.56C127.317 164.766 127.174 164.95 127 165.1C126.707 165.303 126.357 165.408 126 165.4Z" fill="white"/>
<path d="M142 85.4001H159.5C159.974 85.4115 160.432 85.5724 160.809 85.8597C161.186 86.147 161.463 86.5461 161.6 87.0001C162.014 87.7075 162.285 88.4887 162.4 89.3001C162.6 90.3001 162.8 91.4001 162.9 92.4001C163 93.4001 163.1 94.7001 163.1 96.0001C166.103 92.4948 169.731 89.5785 173.8 87.4001C178.369 84.9235 183.505 83.6826 188.7 83.8001C188.865 83.7778 189.032 83.7887 189.192 83.8323C189.352 83.8759 189.502 83.9512 189.633 84.0538C189.763 84.1564 189.872 84.2841 189.952 84.4295C190.033 84.5749 190.083 84.7349 190.1 84.9001V104.8C190.1 105.6 189.6 105.9 188.5 105.9C182.019 105.512 175.539 106.678 169.6 109.3C167.574 110.167 165.74 111.424 164.2 113V164C164.2 165 163.8 165.4 162.9 165.4H143.4C143.216 165.431 143.027 165.424 142.845 165.38C142.663 165.336 142.492 165.256 142.343 165.143C142.193 165.031 142.068 164.89 141.974 164.727C141.881 164.565 141.822 164.386 141.8 164.2V108.4C141.8 106 141.8 103.5 141.7 100.9C141.6 98.3001 141.6 95.7001 141.5 93.1001C141.4 90.9001 141.2 88.7001 140.9 86.5001C140.873 86.3819 140.871 86.2596 140.891 86.1402C140.912 86.0209 140.956 85.9069 141.022 85.8047C141.087 85.7025 141.171 85.6141 141.27 85.5447C141.37 85.4752 141.482 85.4261 141.6 85.4001C141.7 85.3001 141.8 85.3001 142 85.4001Z" fill="white"/>
</g>
</g>
<defs>
<clipPath id="clip0_345_135">
<rect width="240" height="234" fill="white"/>
</clipPath>
</defs>
</svg>
