<svg width="240" height="234" viewBox="0 0 240 234" fill="none" xmlns="http://www.w3.org/2000/svg">
<g clip-path="url(#clip0_345_151)">
<mask id="mask0_345_151" style="mask-type:luminance" maskUnits="userSpaceOnUse" x="0" y="0" width="240" height="234">
<path d="M200 0H40C17.9086 0 0 17.9086 0 40V194C0 216.091 17.9086 234 40 234H200C222.091 234 240 216.091 240 194V40C240 17.9086 222.091 0 200 0Z" fill="white"/>
</mask>
<g mask="url(#mask0_345_151)">
<path d="M42.5 1.88608e-05H197.5C203.083 -0.00524284 208.612 1.09046 213.77 3.22442C218.929 5.35838 223.616 8.48871 227.564 12.4362C231.511 16.3838 234.642 21.071 236.776 26.2297C238.91 31.3885 240.005 36.9174 240 42.5V191.5C240.005 197.083 238.91 202.612 236.776 207.77C234.642 212.929 231.511 217.616 227.564 221.564C223.616 225.511 218.929 228.642 213.77 230.776C208.612 232.91 203.083 234.005 197.5 234H42.5C36.9174 234.005 31.3885 232.91 26.2297 230.776C21.071 228.642 16.3838 225.511 12.4362 221.564C8.48871 217.616 5.35838 212.929 3.22442 207.77C1.09046 202.612 -0.00524284 197.083 1.88608e-05 191.5V42.5C-0.00524284 36.9174 1.09046 31.3885 3.22442 26.2297C5.35838 21.071 8.48871 16.3838 12.4362 12.4362C16.3838 8.48871 21.071 5.35838 26.2297 3.22442C31.3885 1.09046 36.9174 -0.00524284 42.5 1.88608e-05Z" fill="black"/>
<path d="M57 164.1V61.2C57 60.5 57.3 60.1 58 60.1C59.7 60.1 61.3 60.1 63.6 60C65.9 59.9 68.5 59.9 71.2 59.8C73.9 59.7 76.8 59.7 79.9 59.6C83 59.5 86 59.5 89 59.5C97.2 59.5 104 60.5 109.6 62.6C114.62 64.3048 119.197 67.1059 123 70.8C126.222 74.0328 128.712 77.9207 130.3 82.2C131.814 86.3674 132.592 90.7662 132.6 95.2C132.6 103.8 130.6 110.9 126.6 116.5C122.581 122.092 116.971 126.344 110.5 128.7C103.7 131.2 96.2 132.1 88 132.1C85.6 132.1 84 132.1 83 132C82 131.9 80.6 131.9 78.7 131.9V164C78.7223 164.165 78.7114 164.332 78.6678 164.492C78.6242 164.652 78.5489 164.802 78.4463 164.933C78.3437 165.063 78.2159 165.172 78.0705 165.252C77.9252 165.333 77.7652 165.383 77.6 165.4H58.2C57.4 165.4 57 165 57 164.1ZM78.8 79.4V113C80.2 113.1 81.5 113.2 82.7 113.2H88C91.9038 113.205 95.7843 112.597 99.5 111.4C102.688 110.463 105.536 108.622 107.7 106.1C109.8 103.6 110.8 100.2 110.8 95.8C110.894 92.6751 110.096 89.588 108.5 86.9C106.833 84.3036 104.38 82.3068 101.5 81.2C97.7459 79.7297 93.729 79.0488 89.7 79.2C87.1 79.2 84.8 79.2 82.9 79.3C81.5331 79.2106 80.1609 79.2441 78.8 79.4Z" fill="white"/>
<path d="M146.6 85.2H164.1C164.574 85.2115 165.032 85.3723 165.409 85.6596C165.786 85.947 166.063 86.3461 166.2 86.8C166.505 87.6046 166.707 88.4446 166.8 89.3C167 90.3 167.2 91.4 167.3 92.4C167.4 93.4 167.5 94.7 167.5 96C170.503 92.4947 174.131 89.5785 178.2 87.4C182.848 84.8179 188.083 83.4749 193.4 83.5C193.565 83.4777 193.732 83.4887 193.892 83.5322C194.052 83.5758 194.202 83.6511 194.333 83.7537C194.463 83.8563 194.572 83.9841 194.652 84.1295C194.733 84.2749 194.783 84.4349 194.8 84.6V104.5C194.8 105.3 194.3 105.6 193.2 105.6C189.572 105.481 185.944 105.817 182.4 106.6C179.511 107.196 176.695 108.102 174 109.3C172.065 110.172 170.33 111.432 168.9 113V164C168.9 165 168.5 165.4 167.6 165.4H147.9C147.716 165.431 147.527 165.424 147.345 165.38C147.163 165.336 146.992 165.255 146.843 165.143C146.693 165.031 146.568 164.89 146.474 164.727C146.381 164.565 146.322 164.386 146.3 164.2V108.4C146.3 106 146.3 103.5 146.2 100.9C146.1 98.3 146.1 95.7 146 93.1C146 90.8 145.8 88.6 145.6 86.3C145.573 86.1818 145.571 86.0595 145.591 85.9402C145.612 85.8209 145.656 85.7068 145.721 85.6046C145.787 85.5024 145.871 85.4141 145.97 85.3446C146.07 85.2752 146.182 85.2261 146.3 85.2C146.3 85.1 146.5 85.1 146.6 85.2Z" fill="white"/>
</g>
</g>
<defs>
<clipPath id="clip0_345_151">
<rect width="240" height="234" fill="white"/>
</clipPath>
</defs>
</svg>
