<svg width="80" height="80" viewBox="0 0 80 80" fill="none" xmlns="http://www.w3.org/2000/svg">
<path d="M39.8776 0C17.8543 0 0 17.8538 0 39.8771C0 61.9014 17.8543 79.7538 39.8776 79.7538C61.9033 79.7538 79.7557 61.9014 79.7557 39.8771C79.7557 17.8552 61.9033 0.00190475 39.8771 0.00190475L39.8776 0ZM58.1652 57.5143C57.451 58.6857 55.9176 59.0571 54.7462 58.3381C45.3833 52.6191 33.5967 51.3238 19.7157 54.4952C18.3781 54.8 17.0448 53.9619 16.74 52.6238C16.4338 51.2857 17.2686 49.9524 18.6095 49.6476C33.8 46.1757 46.83 47.6714 57.3414 54.0952C58.5129 54.8143 58.8843 56.3429 58.1652 57.5143ZM63.0462 46.6548C62.1462 48.119 60.2319 48.581 58.77 47.681C48.051 41.091 31.7114 39.1829 19.0329 43.0314C17.3886 43.5281 15.6519 42.6014 15.1529 40.96C14.6576 39.3157 15.5848 37.5824 17.2262 37.0824C31.7086 32.6881 49.7129 34.8167 62.0224 42.381C63.4843 43.281 63.9462 45.1948 63.0462 46.6548ZM63.4652 35.3481C50.6129 27.7143 29.4081 27.0124 17.1371 30.7367C15.1667 31.3343 13.0829 30.2219 12.4857 28.2514C11.8886 26.28 13 24.1976 14.9719 23.5986C29.0581 19.3224 52.4748 20.1486 67.2719 28.9329C69.0481 29.9848 69.6291 32.2738 68.5767 34.0438C67.529 35.8162 65.2338 36.4005 63.4671 35.3481H63.4652Z" fill="white"/>
</svg>
